<?xml version="1.0" standalone="no"?>
<!DOCTYPE svg PUBLIC "-//W3C//DTD SVG 20010904//EN"
 "http://www.w3.org/TR/2001/REC-SVG-20010904/DTD/svg10.dtd">
<svg version="1.0" xmlns="http://www.w3.org/2000/svg"
 width="1216.000000pt" height="1216.000000pt" viewBox="0 0 1216.000000 1216.000000"
 preserveAspectRatio="xMidYMid meet">
<metadata>
Created by potrace 1.11, written by Peter Selinger 2001-2013
</metadata>
<g transform="translate(0.000000,1216.000000) scale(0.100000,-0.100000)"
fill="#000000" stroke="none">
<path d="M5770 12040 c-195 -11 -341 -26 -549 -56 -2555 -364 -4597 -2359
-5025 -4909 -136 -808 -104 -1627 95 -2435 352 -1433 1253 -2706 2500 -3532
753 -499 1621 -821 2524 -937 273 -35 444 -45 775 -45 349 1 535 14 846 59
2299 333 4202 1982 4859 4209 277 942 318 1968 114 2926 -156 737 -449 1434
-867 2065 -523 788 -1243 1452 -2076 1915 -739 411 -1590 666 -2436 729 -198
15 -593 21 -760 11z m-425 -322 c3 -13 13 -79 24 -148 20 -132 18 -140 -26
-140 -15 0 -42 25 -88 80 -37 45 -69 80 -70 78 -2 -2 3 -41 11 -87 7 -47 12
-86 11 -87 -1 0 -14 -4 -29 -8 -32 -7 -30 -16 -56 166 -16 109 -17 128 -5 133
35 13 54 1 123 -82 61 -74 72 -83 67 -58 -4 17 -9 53 -12 80 -4 28 -9 58 -11
67 -5 15 -1 17 48 27 4 0 10 -9 13 -21z m1508 13 c23 -9 25 -16 32 -100 4 -50
10 -91 14 -91 3 0 22 39 41 86 l35 86 43 -5 c24 -3 45 -7 47 -9 3 -2 -5 -71
-17 -152 l-22 -147 -25 6 c-14 4 -27 8 -29 10 -2 2 2 40 9 84 6 45 9 84 6 87
-2 3 -19 -31 -37 -76 -18 -44 -37 -83 -42 -86 -5 -3 -20 -3 -33 0 -21 5 -24
13 -30 73 -3 38 -9 84 -13 103 -7 30 -10 22 -21 -62 l-14 -98 -28 0 c-35 0
-34 -7 -9 156 11 71 20 132 20 137 0 10 44 9 73 -2z m-1791 -198 c16 -80 27
-147 25 -149 -1 -1 -15 -4 -32 -6 l-29 -3 -29 144 c-29 153 -28 160 18 161 18
0 23 -16 47 -147z m2225 123 c7 -6 54 -308 49 -313 -3 -4 -19 -2 -34 3 -21 7
-28 17 -30 42 -3 25 -9 33 -30 38 -15 3 -42 10 -60 14 -29 8 -34 6 -47 -21
-12 -22 -23 -29 -45 -29 -16 0 -31 3 -34 8 -2 4 34 67 82 140 85 130 87 133
117 126 16 -3 31 -7 32 -8z m-2391 -41 c40 -26 67 -97 62 -163 -4 -46 -10 -60
-36 -83 -77 -69 -184 -55 -231 30 -29 52 -32 122 -7 169 34 65 146 90 212 47z
m2592 -14 c13 -8 5 -48 -49 -253 -10 -39 -28 -48 -58 -29 -12 7 -8 31 19 142
18 74 35 137 37 142 6 9 35 9 51 -2z m138 -45 c6 -6 21 -49 34 -96 12 -47 25
-89 29 -93 4 -4 18 31 31 77 23 82 25 85 50 79 14 -3 27 -7 29 -9 2 -2 -8 -43
-22 -91 -14 -49 -33 -113 -42 -144 -14 -51 -18 -56 -40 -51 -34 6 -40 16 -65
112 -13 47 -26 89 -30 93 -4 4 -17 -28 -30 -73 -20 -70 -26 -80 -46 -80 -12 0
-26 4 -29 10 -3 5 10 65 30 132 20 68 39 131 41 141 6 19 38 16 60 -7z m-3070
-2 c19 -9 39 -25 44 -34 8 -14 4 -20 -19 -30 -24 -10 -33 -9 -54 4 -41 28 -97
-6 -97 -58 1 -50 35 -114 65 -122 39 -10 74 10 81 46 5 25 11 30 35 30 37 0
43 -12 26 -53 -39 -91 -168 -114 -227 -40 -32 41 -52 120 -40 163 15 57 77
105 138 109 8 1 29 -6 48 -15z m-232 -211 c46 -130 48 -137 30 -150 -10 -7
-23 -13 -30 -13 -6 0 -46 27 -88 61 -43 33 -80 59 -82 56 -2 -2 8 -38 23 -80
14 -42 25 -79 22 -81 -2 -2 -15 -7 -29 -11 -24 -6 -26 -1 -74 135 -27 77 -47
142 -45 145 2 2 16 6 30 10 21 5 39 -5 107 -59 44 -36 83 -66 86 -66 2 0 -9
36 -25 80 -16 44 -29 85 -29 90 0 8 19 16 45 19 6 0 32 -61 59 -136z m3694
103 c39 -20 61 -47 68 -85 7 -32 6 -32 -27 -29 -26 2 -34 8 -39 28 -3 14 -18
31 -35 39 -25 12 -32 12 -54 0 -57 -32 -82 -143 -39 -173 30 -22 57 -20 83 4
22 21 22 21 46 1 l24 -20 -28 -28 c-60 -61 -183 -21 -207 67 -16 61 14 148 66
189 32 25 101 28 142 7z m-3979 -202 c30 -75 50 -139 45 -144 -5 -4 -18 -11
-30 -14 -18 -6 -26 8 -76 133 -55 137 -55 139 -34 149 11 6 26 11 31 11 6 1
34 -60 64 -135z m4271 88 c45 -22 80 -75 80 -121 -1 -49 -30 -111 -69 -144
-61 -51 -177 -26 -217 48 -35 65 -1 177 65 219 34 21 98 20 141 -2z m-4421
-146 l114 -114 -29 -15 c-28 -15 -30 -14 -56 11 l-28 26 -50 -24 c-47 -22 -50
-26 -50 -60 0 -30 -5 -39 -25 -48 -14 -7 -28 -12 -30 -12 -7 0 -14 63 -20 192
l-5 127 27 15 c16 8 30 15 33 16 3 0 56 -51 119 -114z m4651 39 c0 -1 -29 -64
-65 -139 -64 -135 -64 -136 -90 -124 -14 6 -25 15 -25 20 0 6 27 67 61 138
l61 128 29 -10 c16 -5 29 -11 29 -13z m-2135 -5 c1013 -67 1951 -414 2760
-1020 198 -149 313 -248 509 -440 500 -490 870 -1030 1141 -1665 213 -499 342
-1020 391 -1585 20 -231 15 -770 -10 -980 -106 -895 -407 -1693 -910 -2410
-706 -1007 -1774 -1738 -2971 -2034 -458 -113 -807 -151 -1325 -143 -358 5
-482 16 -790 68 -834 140 -1664 512 -2330 1046 -1234 988 -1941 2458 -1940
4033 1 1919 1074 3678 2785 4566 650 337 1307 515 2095 568 112 7 459 5 595
-4z m-2761 -146 c36 -69 66 -129 66 -133 0 -4 -11 -13 -25 -19 -23 -11 -26 -8
-66 68 -24 44 -44 78 -46 76 -2 -2 5 -40 16 -84 26 -101 26 -100 -5 -114 -25
-12 -29 -8 -96 62 l-70 75 46 -87 46 -88 -28 -14 -28 -14 -67 127 c-37 71 -67
133 -67 138 0 10 78 50 83 42 10 -17 127 -135 127 -129 0 9 -28 134 -36 161
-5 17 47 58 73 59 6 0 41 -57 77 -126z m4980 105 c23 -11 25 -17 31 -118 3
-58 7 -110 9 -114 1 -5 22 29 46 76 42 79 46 84 67 74 13 -6 23 -14 23 -19 0
-12 -104 -216 -122 -241 -12 -16 -18 -17 -40 -7 -25 12 -26 17 -35 124 l-8
111 -43 -82 c-23 -46 -46 -83 -50 -83 -5 0 -16 6 -26 13 -17 13 -14 22 48 145
37 73 69 132 71 132 2 0 15 -5 29 -11z m1371 -959 c32 -33 33 -27 -29 -137
-20 -35 -34 -63 -32 -63 3 0 39 20 80 45 42 25 80 45 84 45 5 0 21 -13 37 -30
l28 -29 -98 -103 c-54 -57 -102 -104 -105 -106 -4 -1 -15 7 -25 18 -19 21 -18
22 56 96 l74 76 -94 -57 c-91 -55 -94 -56 -115 -38 -11 10 -22 19 -24 19 -2 1
7 19 20 41 13 21 37 61 52 88 l28 50 -71 -70 -71 -69 -22 22 -23 22 105 105
c58 58 107 105 110 105 4 0 19 -13 35 -30z m-7638 -237 l-22 -22 -95 24 c-52
14 -99 25 -105 25 -5 0 19 -28 53 -63 l63 -63 -24 -22 -23 -22 -104 105 -104
104 23 24 22 25 92 -24 c51 -13 99 -24 107 -24 8 0 -14 29 -50 65 -63 64 -64
64 -45 85 19 21 19 21 127 -87 l108 -108 -23 -22z m-210 -155 c21 -23 21 -24
4 -47 l-19 -25 -111 104 -111 104 21 22 22 23 86 -78 c47 -44 96 -90 108 -103z
m8108 -80 c-39 -79 -71 -145 -73 -148 -8 -11 -43 45 -38 59 18 58 18 59 -19
99 -35 40 -37 40 -69 27 -31 -13 -35 -13 -56 10 l-23 24 24 10 c13 6 80 33
149 59 l125 49 25 -23 24 -24 -69 -142z m-8331 122 c40 -15 104 -78 116 -116
16 -47 4 -89 -37 -135 -65 -72 -136 -73 -214 -2 -65 59 -75 133 -25 198 42 54
105 76 160 55z m8539 -151 c-5 -4 -57 -48 -117 -99 l-110 -92 -18 24 c-9 12
-17 25 -17 28 0 3 50 47 111 98 l112 92 23 -22 c13 -12 20 -25 16 -29z m69
-73 c16 -23 16 -27 -22 -127 -22 -57 -40 -105 -40 -107 0 -2 31 22 69 53 39
30 74 55 79 55 5 0 16 -8 26 -19 16 -17 11 -22 -101 -109 -65 -51 -121 -92
-124 -92 -4 0 -14 11 -23 24 -15 24 -14 30 19 116 19 51 35 96 35 101 0 6 -32
-16 -71 -47 l-71 -56 -16 23 c-9 13 -17 25 -17 26 0 3 230 182 235 182 3 0 13
-10 22 -23z m-8824 -30 c1 -2 -2 -15 -7 -29 -7 -19 -18 -26 -42 -29 -21 -2
-39 -12 -52 -30 -18 -24 -18 -30 -7 -58 17 -40 75 -80 117 -80 46 0 72 39 55
83 -11 29 -10 34 10 49 28 21 45 9 54 -38 18 -99 -71 -180 -169 -153 -52 14
-122 84 -131 132 -11 60 42 146 99 160 18 5 66 0 73 -7z m-118 -314 c52 -35
97 -66 99 -68 2 -2 -4 -15 -14 -30 -17 -26 -17 -26 -125 -22 l-108 4 71 -49
c40 -28 73 -51 75 -53 2 -1 -4 -14 -13 -27 l-16 -26 -98 67 c-167 116 -156
104 -134 131 18 22 26 24 117 22 54 -1 105 -5 114 -8 9 -3 -20 20 -65 52 -82
56 -82 57 -66 81 18 28 4 35 163 -74z m9165 37 c48 -42 62 -93 41 -144 l-16
-38 -24 23 c-21 19 -23 26 -15 48 14 36 -16 76 -60 80 -41 4 -105 -38 -119
-76 -18 -52 24 -99 76 -85 16 4 23 -1 27 -20 9 -35 0 -47 -36 -47 -96 0 -159
113 -113 201 24 47 98 89 156 89 39 0 54 -6 83 -31z m-9273 -322 l47 -30 -15
-29 c-14 -27 -17 -28 -37 -15 -12 8 -70 44 -130 81 l-107 68 17 28 16 28 81
-51 c45 -28 102 -64 128 -80z m9425 73 c39 -23 73 -86 73 -133 0 -110 -167
-190 -250 -121 -40 35 -60 74 -60 122 0 108 144 189 237 132z m-9587 -155
c174 -23 164 -20 143 -56 -16 -27 -22 -29 -53 -24 -33 5 -36 3 -62 -40 -16
-25 -28 -48 -28 -51 0 -3 9 -18 21 -33 20 -28 20 -30 4 -55 -10 -15 -21 -23
-26 -19 -28 30 -189 237 -189 245 0 5 7 20 16 33 11 17 23 23 38 20 11 -2 73
-11 136 -20z m9749 -101 c6 -15 10 -28 9 -30 -2 -1 -60 -34 -128 -73 l-125
-70 -17 22 c-10 12 -18 25 -18 28 0 5 250 148 261 149 3 0 11 -12 18 -26z
m-9889 -139 c72 -36 130 -70 130 -76 0 -6 -5 -19 -10 -30 -10 -18 -15 -17
-103 27 -97 49 -97 48 1 -36 65 -56 70 -65 49 -94 -14 -20 -23 -19 -192 20
-11 2 19 -16 68 -41 48 -25 87 -49 87 -53 0 -5 -6 -17 -14 -28 -14 -18 -19
-17 -145 46 -72 35 -131 68 -131 72 0 21 36 78 49 78 9 -1 45 -7 81 -15 36 -8
72 -14 80 -14 8 0 -16 28 -55 63 l-69 63 18 42 c11 22 21 41 23 41 2 0 62 -29
133 -65z m9906 -94 c-31 -50 -54 -91 -51 -91 3 0 41 18 84 39 l78 40 12 -25
c6 -14 11 -27 11 -29 0 -5 -255 -135 -264 -135 -2 0 -9 13 -16 29 -11 28 -8
36 44 120 31 50 54 91 51 91 -3 0 -41 -18 -84 -39 l-78 -40 -12 26 c-6 14 -10
27 -9 28 2 2 62 32 133 68 l130 65 14 -28 c13 -26 11 -32 -43 -119z m588
-1423 c3 -7 7 -27 10 -44 5 -31 4 -32 -87 -75 l-92 -43 100 -9 c55 -4 101 -9
102 -11 1 -1 3 -22 5 -46 l3 -45 -125 -22 c-168 -30 -170 -30 -170 6 0 28 1
28 90 41 95 14 112 30 31 30 -27 0 -69 3 -95 6 -45 7 -47 8 -44 37 3 29 10 34
95 71 51 22 91 41 90 42 -1 1 -36 -4 -77 -11 -41 -8 -88 -14 -103 -14 -25 -1
-28 2 -25 26 3 27 6 28 123 49 147 26 165 27 169 12z m-10901 -90 c-2 -5 -3
-19 -3 -31 0 -21 -13 -29 -95 -62 -52 -21 -92 -42 -90 -45 3 -4 30 -11 62 -15
85 -10 101 -19 96 -49 -6 -31 -2 -31 -168 -3 -113 20 -130 25 -133 42 -5 32
18 50 108 85 47 18 89 36 93 40 4 4 -31 12 -78 19 -47 7 -88 17 -91 23 -3 5
-3 19 0 32 l5 22 148 -25 c81 -14 147 -29 146 -33z m-193 -258 c154 -19 150
-17 150 -50 0 -36 2 -36 -178 -13 -105 13 -132 20 -127 31 3 7 5 23 5 34 0 17
5 19 33 15 17 -4 70 -11 117 -17z m11006 -39 c80 -22 148 -41 149 -43 1 -2 6
-17 9 -34 l7 -31 -143 -76 -143 -76 -5 32 c-5 28 -2 34 28 50 27 15 33 23 28
40 -3 12 -6 38 -6 58 0 33 -3 36 -37 45 -33 8 -38 13 -41 42 -2 17 -1 32 2 32
3 0 71 -18 152 -39z m-10958 -85 c52 -27 75 -62 79 -118 8 -97 -51 -158 -150
-158 -98 0 -157 53 -157 143 0 94 53 147 148 147 29 0 65 -6 80 -14z m11136
-202 c14 -37 7 -42 -81 -48 -49 -4 -116 -9 -149 -12 -60 -6 -61 -6 -68 21 -4
15 -4 30 -1 33 7 7 134 18 231 20 48 2 63 -2 68 -14z m-11284 -156 c0 -9 -11
-28 -25 -42 -30 -30 -32 -56 -6 -87 14 -18 31 -23 78 -27 52 -4 64 -1 82 17
32 32 28 78 -8 98 -26 15 -28 20 -19 45 13 36 29 35 70 -1 30 -27 33 -34 33
-90 0 -52 -4 -63 -29 -90 -98 -102 -281 -40 -278 95 0 51 23 91 63 111 26 13
39 4 39 -29z m11290 28 c0 -8 2 -21 5 -29 4 -9 -25 -34 -90 -77 -52 -34 -95
-64 -95 -66 0 -2 43 -1 95 3 l95 6 0 -31 c0 -31 -1 -32 -43 -32 -24 0 -92 -3
-150 -7 l-107 -6 0 34 c0 32 6 38 90 93 50 32 90 61 90 63 0 2 -43 1 -95 -3
l-95 -7 0 31 0 31 73 4 c188 9 227 7 227 -7z m-63 -305 c51 -24 73 -63 73
-131 0 -44 -5 -56 -29 -81 -36 -35 -59 -37 -67 -5 -4 17 1 30 20 49 33 33 33
61 1 92 -32 33 -124 36 -155 5 -31 -31 -26 -77 10 -98 22 -13 28 -22 24 -37
-11 -35 -23 -40 -52 -23 -39 23 -64 75 -58 122 12 104 125 155 233 107z
m-11027 -34 c0 -31 -6 -37 -85 -88 l-85 -54 87 -5 c86 -5 88 -6 91 -31 3 -26
2 -26 -74 -32 -42 -4 -112 -7 -156 -7 l-78 0 0 33 c1 30 8 37 96 92 l95 61
-96 -4 -95 -4 0 30 c0 17 6 33 13 35 6 3 74 6 150 6 l137 1 0 -33z m11021
-280 c67 -44 87 -139 43 -204 -40 -61 -131 -80 -211 -44 -52 24 -73 63 -73
135 0 44 5 60 27 86 33 40 54 49 124 49 42 1 64 -5 90 -22z m-11007 -13 c4
-15 3 -30 -1 -35 -4 -4 -74 -10 -155 -14 l-148 -7 0 30 c0 40 7 41 246 50 48
2 52 0 58 -24z m6 -104 c0 -23 -7 -33 -30 -45 -32 -16 -35 -29 -24 -97 6 -33
11 -38 39 -44 29 -5 34 -11 37 -40 2 -19 2 -34 -2 -34 -3 0 -73 18 -157 41
l-151 42 -4 34 -4 33 140 74 c78 41 144 72 148 69 5 -2 8 -17 8 -33z m10953
-202 c82 -10 87 -12 87 -35 0 -34 -18 -37 -128 -24 -180 21 -172 19 -172 53
l0 31 63 -7 c34 -4 101 -12 150 -18z m-10920 -105 c3 -16 3 -31 1 -34 -2 -3
-45 -12 -96 -20 -91 -13 -92 -14 -48 -20 25 -4 65 -8 90 -8 54 -1 65 -8 73
-43 7 -25 3 -28 -83 -64 -49 -21 -88 -39 -86 -41 3 -4 120 12 164 22 19 5 22
1 22 -27 l0 -33 -142 -23 c-78 -12 -145 -19 -149 -15 -3 5 -10 25 -13 46 l-7
38 93 42 92 42 -99 10 -100 10 -9 43 c-5 23 -7 45 -4 47 3 3 68 16 144 29 77
13 142 24 145 25 4 0 9 -11 12 -26z m10855 -16 c74 -12 134 -25 133 -29 -1 -5
-1 -18 -1 -31 0 -20 -14 -29 -107 -68 l-108 -44 98 -14 c98 -14 98 -14 92 -40
-4 -14 -8 -28 -10 -30 -2 -2 -70 7 -150 19 -139 22 -146 24 -141 44 3 12 6 26
6 32 0 5 43 28 95 50 52 21 95 42 95 45 0 3 -38 11 -85 18 -85 13 -93 18 -79
55 7 19 -2 20 162 -7z m-455 -1548 c67 -34 124 -63 126 -65 8 -7 -32 -84 -43
-84 -6 1 -51 9 -99 19 -101 21 -101 21 1 -63 l60 -50 -20 -42 -21 -42 -126 60
c-69 32 -130 63 -134 67 -4 4 -3 20 4 34 l12 26 88 -45 c49 -24 89 -42 89 -40
0 3 -34 33 -75 67 -41 34 -75 67 -75 73 0 7 6 20 13 30 13 17 17 17 110 -3 53
-12 100 -21 104 -21 5 0 -34 20 -84 45 -51 24 -93 47 -93 50 0 14 21 45 31 45
5 0 64 -28 132 -61z m-9933 1 c13 -31 9 -38 -88 -189 -14 -21 -7 -19 67 19 46
23 84 40 86 38 8 -10 26 -50 23 -53 -2 -1 -62 -32 -135 -69 -125 -62 -133 -65
-143 -47 -17 32 -12 47 41 131 28 44 50 83 48 85 -2 2 -38 -12 -79 -31 -69
-33 -75 -34 -87 -18 -7 10 -13 21 -13 26 0 7 245 136 261 137 4 1 12 -12 19
-29z m9759 -345 c101 -124 102 -125 85 -150 -11 -16 -25 -25 -43 -25 -43 1
-280 36 -287 42 -3 4 1 17 10 30 12 17 26 23 53 23 33 0 39 5 64 46 l27 46
-23 29 c-21 26 -22 31 -9 56 8 16 16 28 18 28 2 0 49 -56 105 -125z m-9625 88
c16 -31 29 -22 -156 -121 l-97 -53 -15 29 -15 29 127 71 c70 38 130 70 134 71
4 1 14 -11 22 -26z m40 -127 c18 -8 46 -31 62 -52 24 -30 29 -47 29 -90 0 -45
-4 -57 -30 -84 -99 -104 -224 -87 -271 36 -28 74 5 140 90 180 59 28 75 29
120 10z m9447 -198 c65 -40 119 -78 119 -84 0 -5 -6 -19 -14 -29 -13 -18 -19
-16 -120 46 -152 92 -151 91 -135 117 8 12 18 22 23 22 5 0 62 -33 127 -72z
m-64 -109 c59 -40 110 -74 112 -75 2 -2 -2 -16 -10 -30 l-14 -27 -112 6 c-62
3 -113 4 -113 2 0 -1 34 -24 75 -51 41 -27 75 -53 75 -59 -1 -5 -6 -18 -14
-27 -11 -16 -23 -10 -127 59 -63 41 -118 79 -123 84 -6 5 -4 19 5 35 l14 26
115 -6 115 -7 -70 47 c-91 61 -89 58 -75 84 14 27 16 26 147 -61z m-9173 11
c84 -75 64 -185 -45 -240 -83 -43 -168 -13 -202 71 -18 42 -18 47 -3 83 15 37
17 38 38 23 19 -12 22 -23 20 -55 -4 -46 22 -82 60 -82 34 0 104 47 117 79 21
49 -21 98 -73 85 -19 -4 -25 -1 -30 21 -9 36 -1 45 44 45 30 0 48 -8 74 -30z
m151 -214 c15 -22 13 -30 -24 -125 -21 -56 -34 -98 -28 -93 7 5 41 30 76 57
l64 48 18 -24 c10 -13 15 -27 11 -30 -4 -4 -58 -45 -121 -93 l-113 -86 -19 24
c-20 25 -18 34 57 220 4 12 -21 -3 -69 -39 -64 -48 -80 -55 -92 -45 -8 7 -15
18 -15 26 0 12 216 184 232 184 4 0 15 -11 23 -24z m8843 -36 c52 -37 72 -76
72 -136 0 -41 -5 -51 -39 -85 -34 -34 -45 -39 -85 -39 -51 0 -50 -1 -35 34 8
17 21 26 42 28 19 2 38 13 50 30 18 24 18 30 7 58 -17 40 -75 80 -117 80 -46
0 -72 -39 -55 -83 11 -29 10 -34 -10 -49 -22 -17 -24 -17 -40 3 -10 12 -18 37
-18 56 0 116 130 174 228 103z m-8662 -195 c15 -23 15 -27 1 -38 -8 -7 -60
-49 -115 -94 l-99 -82 -22 23 -22 24 116 96 c65 53 119 96 121 96 2 0 11 -11
20 -25z m8437 -26 c32 -17 77 -60 93 -91 53 -102 -61 -234 -172 -198 -132 44
-165 188 -64 274 35 29 102 36 143 15z m-8378 -39 c16 -18 17 -24 5 -61 -13
-40 -13 -40 23 -77 35 -35 38 -36 69 -24 28 10 34 9 55 -10 13 -12 20 -25 16
-29 -5 -4 -72 -30 -151 -60 l-142 -52 -24 22 -25 23 72 144 c39 79 74 144 78
144 3 0 14 -9 24 -20z m8238 -278 c65 -62 67 -65 51 -83 -9 -11 -21 -19 -25
-19 -5 0 -56 44 -114 97 l-105 97 22 23 21 23 41 -37 c23 -20 72 -65 109 -101z
m-8021 31 c18 -16 16 -20 -54 -91 -75 -76 -70 -77 42 -9 46 28 68 37 79 30 35
-22 34 -38 -6 -103 -68 -112 -67 -117 9 -42 l74 73 19 -21 c19 -21 18 -22 -85
-125 l-105 -105 -33 33 -33 34 30 51 c17 29 38 66 46 83 16 30 16 30 -7 18
-13 -6 -49 -27 -81 -46 l-59 -35 -34 33 -34 33 102 103 c57 57 105 103 107
103 2 0 13 -8 23 -17z m7983 -213 c-22 -25 -40 -25 -135 0 -41 11 -82 20 -90
20 -8 0 15 -29 50 -65 64 -65 64 -65 44 -85 -19 -20 -20 -20 -124 85 l-105
105 22 22 c22 22 22 22 100 5 43 -10 89 -20 103 -23 20 -5 13 6 -38 57 l-62
65 22 22 23 22 104 -104 c104 -104 105 -105 86 -126z m-1358 -857 c37 -70 69
-131 71 -135 2 -4 -15 -16 -38 -28 l-41 -21 -69 73 -68 73 22 -98 23 -98 -38
-19 c-21 -11 -40 -20 -43 -20 -6 0 -136 245 -136 257 0 6 10 14 23 20 20 9 25
4 69 -76 26 -47 48 -81 48 -76 0 6 -9 44 -20 85 -25 97 -25 108 4 122 23 10
29 6 80 -49 30 -33 65 -71 76 -84 11 -13 -2 19 -30 73 l-51 96 23 16 c12 9 23
16 25 16 1 0 33 -57 70 -127z m-5307 19 c0 -26 3 -71 7 -100 l6 -53 38 68 c21
37 40 72 42 77 2 7 39 -6 55 -20 2 -1 -7 -22 -21 -46 -13 -24 -45 -82 -71
-130 l-47 -88 -30 15 c-27 14 -29 20 -30 73 0 31 -4 80 -7 107 l-7 50 -43 -82
-43 -83 -24 16 c-14 9 -25 18 -25 21 0 5 75 147 117 221 l24 43 30 -21 c25
-18 29 -28 29 -68z m250 -84 c0 -6 -27 -67 -61 -138 l-61 -128 -29 11 c-16 6
-29 15 -29 19 0 5 29 67 65 138 64 128 65 129 90 118 14 -6 25 -15 25 -20z
m4714 -75 c4 -60 9 -132 12 -160 5 -49 4 -54 -20 -64 -37 -17 -51 -8 -166 106
-92 90 -100 100 -84 112 25 18 44 16 71 -8 l22 -22 48 21 c45 19 48 23 51 60
3 36 22 58 54 61 3 1 9 -47 12 -106z m-4534 5 c52 -27 90 -78 90 -122 0 -49
-44 -133 -82 -156 -106 -65 -250 39 -219 158 15 56 51 104 91 124 46 23 67 23
120 -4z m4288 -166 c32 -78 51 -136 46 -141 -5 -5 -18 -12 -29 -15 -19 -5 -27
9 -77 131 -56 137 -56 138 -35 150 12 7 26 11 31 10 4 -2 33 -62 64 -135z
m-116 -52 c46 -126 48 -135 32 -147 -10 -7 -23 -13 -30 -13 -7 0 -48 29 -93
65 -44 36 -82 65 -85 65 -2 0 9 -38 26 -85 17 -47 29 -87 26 -90 -2 -2 -15 -6
-28 -7 -22 -3 -28 7 -73 130 -29 76 -46 137 -41 141 29 27 51 19 132 -44 45
-36 82 -61 82 -55 0 5 -11 39 -25 76 -14 36 -25 72 -25 79 0 13 25 25 44 21 5
-1 31 -62 58 -136z m-3853 83 c62 -46 73 -120 30 -204 -48 -95 -172 -106 -238
-23 -12 15 -21 37 -21 50 0 21 5 24 35 24 30 0 35 -3 35 -24 0 -33 22 -48 67
-44 34 3 40 8 61 48 12 24 22 57 22 72 0 58 -70 89 -108 48 -17 -18 -20 -18
-40 -4 -31 21 -27 41 11 65 39 25 106 21 146 -8z m197 -67 c6 -6 22 -53 34
-104 13 -51 27 -89 31 -85 4 5 17 42 29 84 20 70 24 76 46 71 13 -2 26 -8 29
-12 5 -8 -73 -271 -84 -283 -4 -4 -19 -3 -33 2 -22 8 -29 24 -54 118 l-28 108
-29 -92 -28 -92 -29 10 c-16 6 -27 16 -25 22 2 7 20 66 40 132 20 66 38 126
40 133 5 15 42 8 61 -12z m3305 -19 c19 -12 44 -42 57 -67 57 -113 -2 -220
-123 -220 -36 0 -51 6 -72 26 l-27 27 27 13 c22 12 29 12 54 -2 35 -20 78 -6
95 30 13 31 -4 104 -33 135 -37 40 -109 16 -109 -36 0 -20 -5 -23 -36 -23 -35
0 -35 1 -29 32 11 50 26 69 70 89 53 25 85 24 126 -4z m-3032 -56 c12 -8 10
-23 -8 -98 -41 -165 -51 -193 -69 -193 -45 1 -47 13 -18 122 15 56 32 120 37
141 10 38 28 47 58 28z m106 -35 c2 -6 6 -23 9 -37 7 -30 15 -35 77 -44 41 -6
45 -5 62 23 15 26 21 29 45 22 15 -4 26 -13 24 -21 -2 -7 -40 -69 -84 -137
-80 -121 -81 -123 -112 -116 -17 3 -32 7 -34 9 -4 3 -52 286 -52 306 0 12 7
14 31 11 17 -2 32 -10 34 -16z m2646 -3 c40 -34 59 -79 59 -138 0 -64 -23
-103 -73 -126 -116 -52 -217 17 -217 149 0 90 53 142 147 142 41 0 58 -5 84
-27z m-276 -163 c15 -77 26 -142 24 -144 -2 -3 -16 -7 -30 -11 l-26 -6 -26
133 c-34 168 -34 168 2 168 l28 0 28 -140z m-2069 112 c9 -5 8 -28 -2 -91 -8
-46 -14 -87 -12 -93 2 -5 21 32 42 81 35 85 40 91 67 91 33 0 34 -2 46 -135
l9 -90 12 85 c18 115 20 120 47 120 13 0 26 -3 28 -7 5 -10 -38 -281 -46 -289
-3 -3 -24 -3 -46 1 -44 7 -39 -7 -59 150 l-7 60 -39 -93 -39 -94 -46 7 c-25 4
-47 8 -47 8 -1 2 42 278 45 295 2 5 37 1 47 -6z m1949 -144 c17 -105 20 -145
11 -151 -26 -18 -57 2 -125 82 -81 93 -75 98 -51 -43 5 -33 9 -61 7 -62 -1 -1
-14 -5 -28 -9 -26 -7 -27 -5 -38 62 -35 205 -38 233 -27 233 6 0 20 3 31 6 17
4 35 -11 89 -76 38 -44 70 -79 72 -77 3 3 -11 110 -21 154 -4 18 0 22 22 25
16 2 29 3 31 2 2 -1 14 -67 27 -146z"/>
<path d="M7212 11544 c-25 -38 -28 -54 -9 -54 6 0 21 -3 33 -6 20 -5 21 -3 14
40 -4 26 -9 48 -11 50 -2 3 -14 -11 -27 -30z"/>
<path d="M4755 11555 c-29 -28 -31 -59 -9 -114 44 -110 175 -54 143 61 -20 77
-85 103 -134 53z"/>
<path d="M8186 11260 c-34 -41 -43 -93 -22 -125 23 -36 61 -49 94 -33 34 16
75 94 67 128 -15 64 -95 81 -139 30z"/>
<path d="M3780 11156 c0 -44 1 -47 23 -40 47 14 48 19 12 54 l-35 34 0 -48z"/>
<path d="M3652 8978 c-18 -18 -17 -5013 1 -5025 6 -4 221 -13 477 -19 l465
-11 -451 -1 c-488 -2 -464 1 -464 -53 0 -18 14 -19 491 -19 l491 0 29 29 c46
46 36 111 -16 111 -12 0 -26 -5 -33 -12 -9 -9 -12 402 -11 1852 0 1026 2 1861
4 1855 4 -9 126 -494 752 -2990 102 -407 190 -746 196 -752 7 -10 120 -13 503
-13 272 0 493 -3 492 -7 -4 -19 15 -62 29 -68 22 -8 62 20 68 48 2 12 12 53
20 91 14 62 14 71 1 78 -8 5 -22 16 -31 24 -9 9 -17 15 -19 13 -2 -2 -11 -37
-21 -77 -9 -40 -19 -71 -22 -69 -2 3 10 61 28 130 l31 127 37 6 c20 3 41 7 47
9 5 1 34 94 62 206 29 112 99 388 157 614 57 225 103 411 101 412 -1 2 -28
-24 -59 -56 -32 -33 -57 -57 -57 -55 0 22 34 133 39 129 4 -2 30 19 58 48 51
52 51 53 96 222 26 94 71 271 102 395 31 124 58 233 61 243 4 13 -7 30 -33 55
-36 34 -38 40 -31 70 l9 32 30 -35 c17 -19 35 -35 39 -35 17 0 103 387 124
555 l22 170 -23 3 c-24 3 -27 12 -17 50 5 16 10 20 19 12 9 -7 16 -6 25 5 16
19 6 47 -15 39 -18 -7 -18 -4 -5 30 5 14 16 26 25 26 10 0 15 11 17 38 3 93 8
132 26 202 20 75 20 74 21 -1785 1 -1080 5 -1866 10 -1874 8 -12 83 -14 482
-12 314 2 478 6 486 13 11 8 13 502 11 2522 l-3 2511 -777 3 -777 2 -15 -52
c-8 -29 -72 -269 -141 -533 -437 -1662 -716 -2722 -721 -2735 -3 -8 -52 161
-109 375 -57 215 -201 755 -320 1200 -243 909 -219 819 -355 1330 -55 209
-103 388 -106 398 -5 16 -51 17 -773 17 -583 0 -770 -3 -779 -12z m3287 -3719
c-18 -45 -23 -26 -8 33 12 45 15 48 17 24 2 -15 -2 -41 -9 -57z m-72 -261 c-3
-8 -6 -5 -6 6 -1 11 2 17 5 13 3 -3 4 -12 1 -19z m-10 -40 c-3 -8 -6 -5 -6 6
-1 11 2 17 5 13 3 -3 4 -12 1 -19z m-10 -40 c-3 -8 -6 -5 -6 6 -1 11 2 17 5
13 3 -3 4 -12 1 -19z m-10 -40 c-3 -8 -6 -5 -6 6 -1 11 2 17 5 13 3 -3 4 -12
1 -19z m-10 -40 c-3 -8 -6 -5 -6 6 -1 11 2 17 5 13 3 -3 4 -12 1 -19z m-10
-40 c-3 -8 -6 -5 -6 6 -1 11 2 17 5 13 3 -3 4 -12 1 -19z m-10 -40 c-3 -8 -6
-5 -6 6 -1 11 2 17 5 13 3 -3 4 -12 1 -19z m-10 -40 c-3 -8 -6 -5 -6 6 -1 11
2 17 5 13 3 -3 4 -12 1 -19z m-20 -80 c-3 -8 -6 -5 -6 6 -1 11 2 17 5 13 3 -3
4 -12 1 -19z m-10 -40 c-3 -8 -6 -5 -6 6 -1 11 2 17 5 13 3 -3 4 -12 1 -19z
m-10 -40 c-3 -8 -6 -5 -6 6 -1 11 2 17 5 13 3 -3 4 -12 1 -19z m-10 -40 c-3
-8 -6 -5 -6 6 -1 11 2 17 5 13 3 -3 4 -12 1 -19z m-10 -40 c-3 -8 -6 -5 -6 6
-1 11 2 17 5 13 3 -3 4 -12 1 -19z m-10 -40 c-3 -8 -6 -5 -6 6 -1 11 2 17 5
13 3 -3 4 -12 1 -19z m-10 -40 c-3 -8 -6 -5 -6 6 -1 11 2 17 5 13 3 -3 4 -12
1 -19z m-10 -40 c-3 -8 -6 -5 -6 6 -1 11 2 17 5 13 3 -3 4 -12 1 -19z m-10
-40 c-3 -8 -6 -5 -6 6 -1 11 2 17 5 13 3 -3 4 -12 1 -19z m-10 -40 c-3 -8 -6
-5 -6 6 -1 11 2 17 5 13 3 -3 4 -12 1 -19z m-10 -40 c-3 -8 -6 -5 -6 6 -1 11
2 17 5 13 3 -3 4 -12 1 -19z"/>
<path d="M8563 8933 c-28 -11 -13 -33 22 -33 28 0 35 4 35 20 0 20 -26 26 -57
13z"/>
<path d="M8548 8655 c-2 -96 -1 -175 3 -175 3 0 19 15 37 33 l32 33 0 142 0
142 -35 0 -34 0 -3 -175z"/>
<path d="M8599 8444 c-7 -9 -24 -20 -37 -25 -22 -8 -24 -14 -18 -47 3 -20 6
-49 6 -64 0 -25 4 -28 35 -28 l35 0 0 59 c0 32 3 73 6 90 7 34 -5 41 -27 15z"/>
<path d="M8550 8090 l0 -130 35 0 35 0 0 130 0 130 -35 0 -35 0 0 -130z"/>
<path d="M8567 7882 c-15 -16 -17 -51 -17 -290 0 -292 1 -299 48 -249 21 23
22 30 22 290 0 253 -1 267 -18 267 -11 0 -26 -8 -35 -18z"/>
<path d="M8583 7263 c-27 -4 -33 -9 -33 -29 l0 -25 30 21 c23 16 52 46 38 38
-2 0 -18 -3 -35 -5z"/>
<path d="M4690 5984 c-11 -13 -10 -19 8 -37 l22 -21 0 37 c0 40 -10 46 -30 21z"/>
<path d="M4649 5564 c-3 -187 -3 -394 -1 -461 4 -120 4 -122 26 -114 11 5 27
6 34 4 14 -5 17 109 13 557 l-3 285 -33 34 -33 33 -3 -338z"/>
<path d="M4675 4920 c-4 -7 -3 -16 3 -22 14 -14 45 -2 40 15 -6 16 -34 21 -43
7z"/>
<path d="M4650 4671 l0 -171 35 0 35 0 0 165 c0 156 -1 165 -19 165 -11 0 -26
3 -35 6 -14 5 -16 -13 -16 -165z"/>
<path d="M4650 4305 l0 -125 35 0 35 0 0 125 0 125 -35 0 -35 0 0 -125z"/>
<path d="M6700 4150 c0 -11 6 -20 14 -20 7 0 16 9 19 20 4 15 0 20 -14 20 -12
0 -19 -7 -19 -20z"/>
<path d="M4650 4079 l0 -40 35 27 c19 14 35 33 35 40 0 9 -12 14 -35 14 -34 0
-35 -1 -35 -41z"/>
<path d="M8520 3935 c-7 -9 -9 -26 -5 -45 8 -37 41 -41 73 -7 30 31 28 41 -11
55 -42 15 -42 15 -57 -3z"/>
<path d="M3650 3335 l0 -165 2444 0 2444 0 6 -36 c7 -32 10 -35 39 -32 24 2
33 8 35 24 2 17 -6 25 -37 38 l-41 16 0 160 0 160 -2445 0 -2445 0 0 -165z"/>
<path d="M3700 3125 c0 -21 5 -25 29 -25 18 0 42 10 58 25 l28 24 -57 1 c-55
0 -58 -1 -58 -25z"/>
<path d="M10193 9839 c-24 -10 -43 -22 -43 -27 0 -10 39 -47 43 -41 14 18 49
81 46 83 -2 2 -23 -5 -46 -15z"/>
<path d="M1823 9795 c-47 -33 -32 -107 30 -145 66 -41 127 -13 127 56 0 29 -8
44 -36 70 -39 38 -84 45 -121 19z"/>
<path d="M10788 9029 c-62 -32 -78 -96 -35 -137 28 -26 57 -28 103 -6 67 32
84 95 39 139 -29 30 -57 31 -107 4z"/>
<path d="M1243 8848 l32 -40 17 22 c19 23 23 40 11 40 -5 1 -27 5 -50 9 l-42
8 32 -39z"/>
<path d="M11561 6718 c1 -7 4 -23 7 -35 l7 -21 45 23 45 23 -40 11 c-52 14
-65 14 -64 -1z"/>
<path d="M475 6630 c-27 -30 -25 -88 4 -111 33 -27 124 -26 151 1 30 30 27 83
-6 109 -37 29 -123 29 -149 1z"/>
<path d="M11559 5709 c-46 -17 -63 -80 -31 -118 35 -44 149 -45 172 -1 17 32
12 75 -13 98 -26 25 -91 36 -128 21z"/>
<path d="M531 5526 l-44 -23 29 -6 c16 -4 39 -9 52 -13 18 -5 22 -2 22 17 0
44 -12 49 -59 25z"/>
<path d="M10886 3361 c-18 -34 -20 -32 57 -44 35 -6 34 2 -7 42 l-34 33 -16
-31z"/>
<path d="M1268 3308 c-48 -28 -65 -66 -46 -105 21 -44 58 -57 107 -37 77 31
103 93 56 139 -30 31 -68 32 -117 3z"/>
<path d="M10232 2547 c-34 -37 -29 -83 14 -123 49 -47 94 -49 132 -8 33 37 28
70 -17 115 -47 47 -94 53 -129 16z"/>
<path d="M1912 2395 c-24 -50 -21 -52 32 -30 l37 16 -21 29 c-12 17 -22 30
-24 30 -1 0 -12 -20 -24 -45z"/>
<path d="M8372 1057 c-22 -13 -22 -13 19 -52 25 -24 39 -32 35 -22 -3 10 -6
34 -6 53 0 37 -10 41 -48 21z"/>
<path d="M3852 1078 c-28 -14 -62 -76 -62 -113 0 -51 63 -89 115 -69 22 9 55
76 55 112 0 57 -58 94 -108 70z"/>
<path d="M4860 671 c0 -10 3 -33 6 -50 l7 -32 28 43 29 43 -23 7 c-38 11 -47
9 -47 -11z"/>
<path d="M7353 778 c-48 -23 -54 -108 -12 -162 29 -37 89 -37 118 0 12 15 21
37 21 51 0 36 -25 88 -51 107 -27 18 -44 19 -76 4z"/>
</g>
</svg>
